<svg width="650" height="200" viewBox="0 0 650 200" fill="none" xmlns="http://www.w3.org/2000/svg">
<rect width="650" height="200" fill="#524A4A"/>
<path d="M218.081 131.087C218.081 134.622 217.1 137.327 215.137 139.202C213.174 141.067 210.347 142 206.655 142H200.664V120.584H207.285C210.693 120.584 213.345 121.502 215.239 123.338C217.134 125.174 218.081 127.757 218.081 131.087ZM214.39 131.204C214.39 126.077 211.992 123.514 207.197 123.514H204.165V139.056H206.655C211.812 139.056 214.39 136.438 214.39 131.204ZM234.81 142H222.695V120.584H234.81V123.543H226.196V129.373H234.268V132.303H226.196V139.026H234.81V142ZM251.802 136.185C251.802 138.089 251.113 139.583 249.736 140.667C248.359 141.751 246.46 142.293 244.038 142.293C241.616 142.293 239.634 141.917 238.091 141.165V137.854C239.067 138.313 240.103 138.675 241.196 138.938C242.3 139.202 243.325 139.334 244.272 139.334C245.659 139.334 246.68 139.07 247.334 138.543C247.998 138.016 248.33 137.308 248.33 136.419C248.33 135.618 248.027 134.939 247.422 134.383C246.816 133.826 245.566 133.167 243.672 132.405C241.719 131.614 240.342 130.711 239.541 129.695C238.74 128.68 238.34 127.459 238.34 126.033C238.34 124.246 238.975 122.84 240.244 121.814C241.514 120.789 243.218 120.276 245.356 120.276C247.407 120.276 249.448 120.726 251.479 121.624L250.366 124.48C248.462 123.68 246.763 123.279 245.269 123.279C244.136 123.279 243.276 123.528 242.69 124.026C242.104 124.515 241.812 125.164 241.812 125.975C241.812 126.531 241.929 127.01 242.163 127.41C242.397 127.801 242.783 128.172 243.32 128.523C243.857 128.875 244.824 129.339 246.221 129.915C247.793 130.569 248.945 131.18 249.678 131.746C250.41 132.312 250.947 132.952 251.289 133.665C251.631 134.378 251.802 135.218 251.802 136.185ZM268.062 142H255.947V120.584H268.062V123.543H259.448V129.373H267.52V132.303H259.448V139.026H268.062V142ZM290.547 142H286.255L275.723 124.935H275.605L275.679 125.887C275.815 127.703 275.884 129.363 275.884 130.867V142H272.705V120.584H276.953L287.456 137.562H287.544C287.524 137.337 287.485 136.521 287.427 135.115C287.368 133.699 287.339 132.596 287.339 131.805V120.584H290.547V142ZM308.403 120.584H312.036L304.536 142H300.845L293.374 120.584H296.978L301.445 133.899C301.68 134.534 301.929 135.354 302.192 136.36C302.456 137.356 302.627 138.099 302.705 138.587C302.832 137.845 303.027 136.985 303.291 136.009C303.555 135.032 303.77 134.31 303.936 133.841L308.403 120.584ZM333.877 131.263C333.877 134.749 333.003 137.459 331.255 139.393C329.517 141.326 327.051 142.293 323.857 142.293C320.625 142.293 318.14 141.336 316.401 139.422C314.673 137.498 313.809 134.769 313.809 131.233C313.809 127.698 314.678 124.983 316.416 123.089C318.164 121.194 320.654 120.247 323.887 120.247C327.07 120.247 329.531 121.209 331.27 123.133C333.008 125.057 333.877 127.767 333.877 131.263ZM317.529 131.263C317.529 133.899 318.062 135.901 319.126 137.269C320.19 138.626 321.768 139.305 323.857 139.305C325.938 139.305 327.505 138.631 328.56 137.283C329.624 135.936 330.156 133.929 330.156 131.263C330.156 128.636 329.629 126.644 328.574 125.286C327.529 123.929 325.967 123.25 323.887 123.25C321.787 123.25 320.2 123.929 319.126 125.286C318.062 126.644 317.529 128.636 317.529 131.263ZM338.477 142V120.584H341.978V138.997H351.045V142H338.477ZM366.938 120.584H370.571L363.071 142H359.38L351.909 120.584H355.513L359.98 133.899C360.215 134.534 360.464 135.354 360.728 136.36C360.991 137.356 361.162 138.099 361.24 138.587C361.367 137.845 361.562 136.985 361.826 136.009C362.09 135.032 362.305 134.31 362.471 133.841L366.938 120.584ZM385.513 142H373.398V120.584H385.513V123.543H376.899V129.373H384.971V132.303H376.899V139.026H385.513V142ZM407.573 131.087C407.573 134.622 406.592 137.327 404.629 139.202C402.666 141.067 399.839 142 396.147 142H390.156V120.584H396.777C400.186 120.584 402.837 121.502 404.731 123.338C406.626 125.174 407.573 127.757 407.573 131.087ZM403.882 131.204C403.882 126.077 401.484 123.514 396.689 123.514H393.657V139.056H396.147C401.304 139.056 403.882 136.438 403.882 131.204ZM431.201 131.263C431.201 134.749 430.327 137.459 428.579 139.393C426.841 141.326 424.375 142.293 421.182 142.293C417.949 142.293 415.464 141.336 413.726 139.422C411.997 137.498 411.133 134.769 411.133 131.233C411.133 127.698 412.002 124.983 413.74 123.089C415.488 121.194 417.979 120.247 421.211 120.247C424.395 120.247 426.855 121.209 428.594 123.133C430.332 125.057 431.201 127.767 431.201 131.263ZM414.854 131.263C414.854 133.899 415.386 135.901 416.45 137.269C417.515 138.626 419.092 139.305 421.182 139.305C423.262 139.305 424.829 138.631 425.884 137.283C426.948 135.936 427.48 133.929 427.48 131.263C427.48 128.636 426.953 126.644 425.898 125.286C424.854 123.929 423.291 123.25 421.211 123.25C419.111 123.25 417.524 123.929 416.45 125.286C415.386 126.644 414.854 128.636 414.854 131.263ZM439.302 130.545H441.733C443.364 130.545 444.546 130.242 445.278 129.637C446.011 129.031 446.377 128.133 446.377 126.941C446.377 125.73 445.981 124.861 445.19 124.334C444.399 123.807 443.208 123.543 441.616 123.543H439.302V130.545ZM439.302 133.445V142H435.801V120.584H441.851C444.614 120.584 446.66 121.102 447.988 122.137C449.316 123.172 449.98 124.734 449.98 126.824C449.98 129.49 448.594 131.39 445.82 132.522L451.87 142H447.886L442.759 133.445H439.302Z" fill="#EEEEEE"/>
<path d="M78.5329 91.08L65.4529 77.64L78.5329 64.2H89.0929L76.0129 77.64L89.0929 91.08H78.5329ZM125.572 91.02H108.892L106.132 99H97.312L112.372 57.06H122.152L137.212 99H128.332L125.572 91.02ZM123.292 84.3L117.232 66.78L111.172 84.3H123.292ZM151.241 54.6V99H142.841V54.6H151.241ZM157.38 82.38C157.38 78.94 158.08 75.94 159.48 73.38C160.88 70.78 162.82 68.78 165.3 67.38C167.78 65.94 170.62 65.22 173.82 65.22C177.94 65.22 181.34 66.26 184.02 68.34C186.74 70.38 188.56 73.26 189.48 76.98H180.42C179.94 75.54 179.12 74.42 177.96 73.62C176.84 72.78 175.44 72.36 173.76 72.36C171.36 72.36 169.46 73.24 168.06 75C166.66 76.72 165.96 79.18 165.96 82.38C165.96 85.54 166.66 88 168.06 89.76C169.46 91.48 171.36 92.34 173.76 92.34C177.16 92.34 179.38 90.82 180.42 87.78H189.48C188.56 91.38 186.74 94.24 184.02 96.36C181.3 98.48 177.9 99.54 173.82 99.54C170.62 99.54 167.78 98.84 165.3 97.44C162.82 96 160.88 94 159.48 91.44C158.08 88.84 157.38 85.82 157.38 82.38ZM226.534 81.66C226.534 82.86 226.454 83.94 226.294 84.9H201.994C202.194 87.3 203.034 89.18 204.514 90.54C205.994 91.9 207.814 92.58 209.974 92.58C213.094 92.58 215.314 91.24 216.634 88.56H225.694C224.734 91.76 222.894 94.4 220.174 96.48C217.454 98.52 214.114 99.54 210.154 99.54C206.954 99.54 204.074 98.84 201.514 97.44C198.994 96 197.014 93.98 195.574 91.38C194.174 88.78 193.474 85.78 193.474 82.38C193.474 78.94 194.174 75.92 195.574 73.32C196.974 70.72 198.934 68.72 201.454 67.32C203.974 65.92 206.874 65.22 210.154 65.22C213.314 65.22 216.134 65.9 218.614 67.26C221.134 68.62 223.074 70.56 224.434 73.08C225.834 75.56 226.534 78.42 226.534 81.66ZM217.834 79.26C217.794 77.1 217.014 75.38 215.494 74.1C213.974 72.78 212.114 72.12 209.914 72.12C207.834 72.12 206.074 72.76 204.634 74.04C203.234 75.28 202.374 77.02 202.054 79.26H217.834ZM251.085 65.28C255.045 65.28 258.245 66.54 260.685 69.06C263.125 71.54 264.345 75.02 264.345 79.5V99H255.945V80.64C255.945 78 255.285 75.98 253.965 74.58C252.645 73.14 250.845 72.42 248.565 72.42C246.245 72.42 244.405 73.14 243.045 74.58C241.725 75.98 241.065 78 241.065 80.64V99H232.665V65.76H241.065V69.9C242.185 68.46 243.605 67.34 245.325 66.54C247.085 65.7 249.005 65.28 251.085 65.28ZM276.593 61.8C275.113 61.8 273.873 61.34 272.873 60.42C271.913 59.46 271.433 58.28 271.433 56.88C271.433 55.48 271.913 54.32 272.873 53.4C273.873 52.44 275.113 51.96 276.593 51.96C278.073 51.96 279.293 52.44 280.253 53.4C281.253 54.32 281.753 55.48 281.753 56.88C281.753 58.28 281.253 59.46 280.253 60.42C279.293 61.34 278.073 61.8 276.593 61.8ZM280.733 65.76V99H272.333V65.76H280.733ZM297.433 70.92C298.513 69.16 299.913 67.78 301.633 66.78C303.393 65.78 305.393 65.28 307.633 65.28V74.1H305.413C302.773 74.1 300.773 74.72 299.413 75.96C298.093 77.2 297.433 79.36 297.433 82.44V99H289.033V65.76H297.433V70.92ZM338.85 74.04V81.12H313.41V74.04H338.85ZM362.731 99.42C359.811 99.42 357.171 98.92 354.811 97.92C352.491 96.92 350.651 95.48 349.291 93.6C347.931 91.72 347.231 89.5 347.191 86.94H356.191C356.311 88.66 356.911 90.02 357.991 91.02C359.111 92.02 360.631 92.52 362.551 92.52C364.511 92.52 366.051 92.06 367.171 91.14C368.291 90.18 368.851 88.94 368.851 87.42C368.851 86.18 368.471 85.16 367.711 84.36C366.951 83.56 365.991 82.94 364.831 82.5C363.711 82.02 362.151 81.5 360.151 80.94C357.431 80.14 355.211 79.36 353.491 78.6C351.811 77.8 350.351 76.62 349.111 75.06C347.911 73.46 347.311 71.34 347.311 68.7C347.311 66.22 347.931 64.06 349.171 62.22C350.411 60.38 352.151 58.98 354.391 58.02C356.631 57.02 359.191 56.52 362.071 56.52C366.391 56.52 369.891 57.58 372.571 59.7C375.291 61.78 376.791 64.7 377.071 68.46H367.831C367.751 67.02 367.131 65.84 365.971 64.92C364.851 63.96 363.351 63.48 361.471 63.48C359.831 63.48 358.511 63.9 357.511 64.74C356.551 65.58 356.071 66.8 356.071 68.4C356.071 69.52 356.431 70.46 357.151 71.22C357.911 71.94 358.831 72.54 359.911 73.02C361.031 73.46 362.591 73.98 364.591 74.58C367.311 75.38 369.531 76.18 371.251 76.98C372.971 77.78 374.451 78.98 375.691 80.58C376.931 82.18 377.551 84.28 377.551 86.88C377.551 89.12 376.971 91.2 375.811 93.12C374.651 95.04 372.951 96.58 370.711 97.74C368.471 98.86 365.811 99.42 362.731 99.42ZM382.673 82.26C382.673 78.9 383.333 75.92 384.653 73.32C386.013 70.72 387.833 68.72 390.113 67.32C392.433 65.92 395.013 65.22 397.853 65.22C400.333 65.22 402.493 65.72 404.333 66.72C406.213 67.72 407.713 68.98 408.833 70.5V65.76H417.293V99H408.833V94.14C407.753 95.7 406.253 97 404.333 98.04C402.453 99.04 400.273 99.54 397.793 99.54C394.993 99.54 392.433 98.82 390.113 97.38C387.833 95.94 386.013 93.92 384.653 91.32C383.333 88.68 382.673 85.66 382.673 82.26ZM408.833 82.38C408.833 80.34 408.433 78.6 407.633 77.16C406.833 75.68 405.753 74.56 404.393 73.8C403.033 73 401.573 72.6 400.013 72.6C398.453 72.6 397.013 72.98 395.693 73.74C394.373 74.5 393.293 75.62 392.453 77.1C391.653 78.54 391.253 80.26 391.253 82.26C391.253 84.26 391.653 86.02 392.453 87.54C393.293 89.02 394.373 90.16 395.693 90.96C397.053 91.76 398.493 92.16 400.013 92.16C401.573 92.16 403.033 91.78 404.393 91.02C405.753 90.22 406.833 89.1 407.633 87.66C408.433 86.18 408.833 84.42 408.833 82.38ZM443.917 65.28C447.877 65.28 451.077 66.54 453.517 69.06C455.957 71.54 457.177 75.02 457.177 79.5V99H448.777V80.64C448.777 78 448.117 75.98 446.797 74.58C445.477 73.14 443.677 72.42 441.397 72.42C439.077 72.42 437.237 73.14 435.877 74.58C434.557 75.98 433.897 78 433.897 80.64V99H425.497V65.76H433.897V69.9C435.017 68.46 436.437 67.34 438.157 66.54C439.917 65.7 441.837 65.28 443.917 65.28ZM474.945 72.66V88.74C474.945 89.86 475.205 90.68 475.725 91.2C476.285 91.68 477.205 91.92 478.485 91.92H482.385V99H477.105C470.025 99 466.485 95.56 466.485 88.68V72.66H462.525V65.76H466.485V57.54H474.945V65.76H482.385V72.66H474.945ZM503.187 99.54C499.987 99.54 497.107 98.84 494.547 97.44C491.987 96 489.967 93.98 488.487 91.38C487.047 88.78 486.327 85.78 486.327 82.38C486.327 78.98 487.067 75.98 488.547 73.38C490.067 70.78 492.127 68.78 494.727 67.38C497.327 65.94 500.227 65.22 503.427 65.22C506.627 65.22 509.527 65.94 512.127 67.38C514.727 68.78 516.767 70.78 518.247 73.38C519.767 75.98 520.527 78.98 520.527 82.38C520.527 85.78 519.747 88.78 518.187 91.38C516.667 93.98 514.587 96 511.947 97.44C509.347 98.84 506.427 99.54 503.187 99.54ZM503.187 92.22C504.707 92.22 506.127 91.86 507.447 91.14C508.807 90.38 509.887 89.26 510.687 87.78C511.487 86.3 511.887 84.5 511.887 82.38C511.887 79.22 511.047 76.8 509.367 75.12C507.727 73.4 505.707 72.54 503.307 72.54C500.907 72.54 498.887 73.4 497.247 75.12C495.647 76.8 494.847 79.22 494.847 82.38C494.847 85.54 495.627 87.98 497.187 89.7C498.787 91.38 500.787 92.22 503.187 92.22ZM539.409 99.54C536.689 99.54 534.249 99.06 532.089 98.1C529.929 97.1 528.209 95.76 526.929 94.08C525.689 92.4 525.009 90.54 524.889 88.5H533.349C533.509 89.78 534.129 90.84 535.209 91.68C536.329 92.52 537.709 92.94 539.349 92.94C540.949 92.94 542.189 92.62 543.069 91.98C543.989 91.34 544.449 90.52 544.449 89.52C544.449 88.44 543.889 87.64 542.769 87.12C541.689 86.56 539.949 85.96 537.549 85.32C535.069 84.72 533.029 84.1 531.429 83.46C529.869 82.82 528.509 81.84 527.349 80.52C526.229 79.2 525.669 77.42 525.669 75.18C525.669 73.34 526.189 71.66 527.229 70.14C528.309 68.62 529.829 67.42 531.789 66.54C533.789 65.66 536.129 65.22 538.809 65.22C542.769 65.22 545.929 66.22 548.289 68.22C550.649 70.18 551.949 72.84 552.189 76.2H544.149C544.029 74.88 543.469 73.84 542.469 73.08C541.509 72.28 540.209 71.88 538.569 71.88C537.049 71.88 535.869 72.16 535.029 72.72C534.229 73.28 533.829 74.06 533.829 75.06C533.829 76.18 534.389 77.04 535.509 77.64C536.629 78.2 538.369 78.78 540.729 79.38C543.129 79.98 545.109 80.6 546.669 81.24C548.229 81.88 549.569 82.88 550.689 84.24C551.849 85.56 552.449 87.32 552.489 89.52C552.489 91.44 551.949 93.16 550.869 94.68C549.829 96.2 548.309 97.4 546.309 98.28C544.349 99.12 542.049 99.54 539.409 99.54ZM560.584 64.2H571.204L584.284 77.64L571.204 91.08H560.584L573.724 77.64L560.584 64.2Z" fill="#EEEEEE"/>
</svg>
